# xmcd
#
# Track frame offsets:
#	150
#	28246
#	43532
#	56029
#	61678
#	83634
#	111885
#	118245
#	135637
#	143528
#	154333
#	170477
#	180765
#	192211
#	206264
#	213502
#	226489
#
# Disc length: 3197 seconds
#
# Revision: 1
# Processed by: cddbd v1.5.2PL0 Copyright (c) Steve Scherf et al.
# Submitted via: EZCDAudioConverter 1.3.4.1
#
DISCID=e70c7b11
DTITLE=Môdulo 1000 - Não Fale Com Paredes
DYEAR=1970
DGENRE=
TTITLE0=Turpe Est Sine Crine Caput
TTITLE1=Não Fale Com Paredes
TTITLE2=Espêlho
TTITLE3=Lem. Ed. Êcalg
TTITLE4=Ôlho Por Ôlho. Dente Por Dente
TTITLE5=Metrô Mental
TTITLE6=Teclados
TTITLE7=Salve.Se Quem Puder
TTITLE8=Animáia
TTITLE9=Gloriosa
TTITLE10=Cafusa
TTITLE11=Big Mama
TTITLE12=Isto Não Quer Dizer Nada
TTITLE13=Ferrugem E Fuligem
TTITLE14=Curtìssima
TTITLE15=The Cancer Stick
TTITLE16=Waiting For Tomorrow
EXTD=
EXTT0=
EXTT1=
EXTT2=
EXTT3=
EXTT4=
EXTT5=
EXTT6=
EXTT7=
EXTT8=
EXTT9=
EXTT10=
EXTT11=
EXTT12=
EXTT13=
EXTT14=
EXTT15=
EXTT16=
PLAYORDER=
